# xmcd
#
# Track frame offsets:
# 150
# 17013
# 32262
# 48048
# 65628
# 78322
# 93671
# 109120
# 123215
# 135241
# 151571
# 164005
# 181064
# 200909
# 217549
#
# Disc length: 3183 seconds
#
#
# Revision: 0
# Processed by: cddbd v1.5.2PL0 Copyright (c) Steve Scherf et al.
# Submitted via: FreeRIP 2.945 
#
DISCID=b20c6d0f
DTITLE=Kenny Rogers -  This Is Gold CD 2
DYEAR=2005
DGENRE=Country
TTITLE0=Crazy
TTITLE1=Misty
TTITLE2=When I Fall In Love
TTITLE3=I Swear
TTITLE4=As Time Goes By
TTITLE5=I Can't Help Falling In Love With You
TTITLE6=Unforgettable
TTITLE7=You Send Me
TTITLE8=Always
TTITLE9=Evergreen
TTITLE10=It Had To Be You
TTITLE11=Stardust
TTITLE12=Through The Years
TTITLE13=You Decorated My Life
TTITLE14=Always And Forever
EXTD=
EXTT0=
EXTT1=
EXTT2=
EXTT3=
EXTT4=
EXTT5=
EXTT6=
EXTT7=
EXTT8=
EXTT9=
EXTT10=
EXTT11=
EXTT12=
EXTT13=
EXTT14=
PLAYORDER=
